<svg id="Layer_1" data-name="Layer 1" xmlns="http://www.w3.org/2000/svg" viewBox="0 0 180 180"><path d="M117,63h-9V99h35.24a53.48,53.48,0,0,1-4.18,13.55l-.05.12c-.3.65-.61,1.29-.94,1.92,0,.09-.09.18-.14.27-.31.61-.64,1.21-1,1.8l-.18.31c-.33.59-.68,1.16-1,1.73-.06.1-.12.2-.19.3-.37.58-.74,1.15-1.13,1.71a1.09,1.09,0,0,1-.13.17c-.78,1.12-1.6,2.2-2.46,3.26q-1.59,2-3.35,3.75l0,0c-.43.44-.87.86-1.31,1.28l-.46.43c-.4.37-.81.73-1.22,1.09l-.62.55c-.39.33-.79.65-1.19,1l-.74.58-1.17.88-.83.58c-.38.27-.77.54-1.17.8s-.6.39-.9.58-.77.49-1.16.72l-1,.58-1.14.64c-.39.21-.78.4-1.17.6s-.88.45-1.33.66c-.62.29-1.25.58-1.89.85-.31.14-.64.26-1,.39s-.92.37-1.39.54-.68.24-1,.36-.9.32-1.36.46-.71.22-1.07.33l-1.37.39-1.09.27-1.41.33-1.09.22-1.47.27-1.07.17-1.56.19-1,.12c-.58.06-1.16.1-1.74.13-.3,0-.58,0-.88.06-.87,0-1.75.07-2.64.07a54,54,0,0,1-18.29-3.18,27,27,0,0,0-32.53-32.53A54,54,0,0,1,90,36h37.54A27,27,0,1,0,153,0H90a90,90,0,1,0,90,90V63H117ZM153,9a18,18,0,1,1-18,18A18,18,0,0,1,153,9Zm18,81A80.92,80.92,0,0,1,32.23,146.72a18,18,0,0,1,10.85-30,18.62,18.62,0,0,1,2.37-.17,18,18,0,0,1,18,18,18.62,18.62,0,0,1-.17,2.37,17.85,17.85,0,0,1-3.43,8.4,61.42,61.42,0,0,0,8.33,3.79A62.66,62.66,0,0,0,90,153c1,0,2.08,0,3.11-.08l1-.07c.68,0,1.37-.09,2.05-.16.4,0,.8-.09,1.2-.14.61-.07,1.22-.14,1.82-.23l1.28-.2,1.7-.31c.44-.08.87-.18,1.3-.27s1.09-.24,1.64-.38l1.29-.33,1.59-.45,1.28-.4c.52-.16,1-.34,1.54-.52l1.27-.45c.51-.19,1-.39,1.5-.59l1.25-.51c.49-.21,1-.44,1.46-.67l1.21-.55,1.48-.76c.45-.24.91-.47,1.35-.72.74-.4,1.48-.82,2.2-1.26.45-.27.88-.55,1.32-.83s.75-.47,1.11-.72.89-.62,1.33-.93l1-.73c.44-.32.88-.66,1.32-1l.95-.75,1.3-1.09c.29-.25.59-.5.87-.76.44-.38.86-.77,1.29-1.17l.8-.76c.42-.42.85-.84,1.26-1.27.24-.24.48-.49.71-.74.43-.45.85-.91,1.27-1.37l.59-.69c.44-.5.86-1,1.28-1.52.15-.18.29-.37.43-.55.46-.57.91-1.15,1.34-1.74l.11-.15a63.15,63.15,0,0,0,3.76-5.8c.64-1.12,1.27-2.25,1.84-3.41l.07-.14c.36-.73.7-1.46,1-2.2l.19-.42c.31-.7.6-1.41.88-2.13l.21-.55c.27-.7.53-1.41.77-2.12.07-.2.14-.4.2-.6.24-.71.46-1.43.67-2.16.06-.2.12-.4.17-.6.21-.73.41-1.47.59-2.22l.12-.55q.27-1.16.51-2.34c0-.13,0-.26.07-.39.15-.85.3-1.69.42-2.55l.06-.47v0c.14-1,.25-2,.34-3,0-.52.09-1,.12-1.56l.06-1.1c0-.93.07-1.85.07-2.79H117V72h54Z"/></svg>