<svg id="iconLogo" xmlns="http://www.w3.org/2000/svg" viewBox="0 0 200 60.11">
    <path d="M80.14 48.9c-6.3 6-17.67 4.75-24.39 2A31 31 0 0147 44.72a26.84 26.84 0 10-6.54 5.37c4.19 3.76 9.1 7.45 15.12 9 9.58 2.55 22.19.34 25-10a.23.23 0 00-.44-.19zm-40.52-11c-2.78-2.34-9-6.79-16.73-2.69a.34.34 0 00.1.63c4.15.85 8.39 4.91 11.62 8.35a12.72 12.72 0 01-7.73 2.7c-8.51 0-15.41-8.95-15.41-20s6.9-20 15.41-20 15.41 9 15.41 20a24.77 24.77 0 01-1.91 9.64c2.07 2.23 3.75 4.42 4.28 6-1.66-1.59-3.3-3.18-5.04-4.65zm52.64 5.8a.39.39 0 01-.27.67l-5.09.07a9.09 9.09 0 01-4.08-.86 4.77 4.77 0 01-2-1.71 9.43 9.43 0 01-4 2.44 22.13 22.13 0 01-7.2 1.09c-3.53 0-6.14-.7-7.83-2.08a9.52 9.52 0 01-3.28-5.5 25.49 25.49 0 01-.48-3.71C58 32.77 58 31.46 58 30.17v-12s.24-5.8-1.83-8.89a.29.29 0 01.22-.45h2.18s9.53-.43 9.53 7.48v15.05c0 1.09 0 2.1.11 3a7 7 0 00.6 2.42 3.39 3.39 0 001.57 1.56 6.73 6.73 0 003 .55 9.26 9.26 0 004.75-1.15 3.32 3.32 0 002-2.86V12.7a3.47 3.47 0 013.47-3.47h6.63v27.88s-.08 4.95 2.03 6.59zm101 1.22h-2.19s-9.52.42-9.52-7.49v-15c0-1.08 0-2.1-.12-3a6.66 6.66 0 00-.59-2.41 3.44 3.44 0 00-1.57-1.56 6.6 6.6 0 00-3-.56 9.25 9.25 0 00-4.75 1.1 3.33 3.33 0 00-2 2.86V41a3.48 3.48 0 01-3.48 3.48h-6.63V16.63s.08-4.94-2-6.59a.39.39 0 01.27-.67l5.08-.06a9.16 9.16 0 014.09.85 4.84 4.84 0 012 1.71c-.39-.54 3.88-2.39 4.31-2.53 3.78-1.23 8.73-1.57 12.48-.09a9.08 9.08 0 015.48 6.67 24.11 24.11 0 01.49 3.72c.07 1.33.11 2.65.11 3.93v12s-.25 5.8 1.83 8.89a.3.3 0 01-.27.46zM154.79 19a.17.17 0 01-.28 0c-4.15-4.5-8.14-2.5-9.19-1.6-1.55 1.34-2.38 3.93-2.38 6.32V41a3.47 3.47 0 01-3.47 3.48h-6.63V18.73s.25-5.82-1.84-8.91a.28.28 0 01.23-.43h1.17a22.52 22.52 0 016.44.49 7.51 7.51 0 013.66 2.54 8.62 8.62 0 012.29-2.71c2.23-1.74 6.54-1.79 9.39.68a6.41 6.41 0 01.61 8.61zM124 13.26a18.38 18.38 0 00-25 0C95.47 16.9 94 22 94 27s1.24 10.2 4.74 13.86c3.33 3.48 8 4.78 12.72 4.78h.07c4.7 0 9.39-1.3 12.72-4.78C127.72 37.19 129 31.93 129 27s-1.53-10.1-5-13.74zm-6.61 23.1a8 8 0 01-2.28 3.19 6 6 0 01-7.24 0 7.88 7.88 0 01-2.27-3.19 24.84 24.84 0 01-1.5-9.48c0-4.83 1-13.37 7.39-13.5 6.39.13 7.39 8.67 7.39 13.5a25 25 0 01-1.51 9.48zM195.5 12v-2h-.6a.17.17 0 01-.17-.16v-.1a.17.17 0 01.17-.16h1.65a.16.16 0 01.16.16v.1a.16.16 0 01-.16.16h-.61v2a.17.17 0 01-.16.17h-.11a.17.17 0 01-.17-.17zm1.5 0l.44-2.32a.18.18 0 01.17-.13.21.21 0 01.15.09l.7 1.83.71-1.83a.18.18 0 01.14-.09.18.18 0 01.16.13L200 12a.17.17 0 01-.17.19h-.1a.17.17 0 01-.16-.15l-.3-1.42-.62 1.52a.16.16 0 01-.14.07s-.13 0-.14-.08l-.61-1.51-.3 1.43a.2.2 0 01-.16.14h-.09A.16.16 0 01197 12z"></path>
</svg>